# Blender 3.6.4
# www.blender.org
o large
v -0.008912 1.982128 -0.048182
v -0.003682 1.982130 -0.018642
v 0.008803 1.954941 -0.020850
v 0.003573 1.954939 -0.050390
v -0.236138 1.856728 0.007291
v -0.251136 1.857044 -0.007707
v -0.251137 1.856792 0.022292
v -0.221139 1.856413 0.022289
v -0.221138 1.856665 -0.007710
v -0.246863 1.007727 0.000160
v -0.261849 1.006560 -0.014808
v -0.261873 1.008525 0.015128
v -0.231875 1.008895 0.015127
v -0.231852 1.006931 -0.014808
v -0.236141 0.139622 0.057131
v -0.252500 0.153062 0.055804
v -0.248392 0.125730 0.067469
v -0.219782 0.126183 0.058457
v -0.223889 0.153516 0.046792
v -0.321963 0.007598 -0.221991
v -0.337989 0.020036 -0.215787
v -0.333546 -0.009586 -0.217460
v -0.305938 -0.004840 -0.228194
v -0.310380 0.024782 -0.226522
v -0.387397 0.007293 -0.390426
v 0.003691 1.982131 -0.018669
v 0.008690 1.982133 -0.048250
v -0.003800 1.954938 -0.050363
v -0.008798 1.954936 -0.020782
v 0.236140 1.856961 0.005387
v 0.221143 1.856807 -0.009615
v 0.221140 1.856736 0.020384
v 0.251137 1.857116 0.020389
v 0.251141 1.857187 -0.009611
v 0.246897 1.007846 0.003366
v 0.231885 1.007106 -0.011604
v 0.231910 1.008959 0.018339
v 0.261908 1.008587 0.018337
v 0.261883 1.006734 -0.011606
v 0.236140 0.139618 0.057100
v 0.222997 0.153507 0.047916
v 0.220280 0.125611 0.058614
v 0.249283 0.125729 0.066285
v 0.251999 0.153625 0.055586
v 0.321962 0.007588 -0.265367
v 0.307336 0.021830 -0.271129
v 0.308693 -0.008133 -0.270542
v 0.336589 -0.006655 -0.259605
v 0.335232 0.023308 -0.260192
v 0.387397 0.007280 -0.432215
v 0.014946 1.968647 -0.019517
v -0.015054 1.968632 -0.019516
v -0.015054 1.968422 -0.049515
v 0.014946 1.968437 -0.049516
v -0.000154 2.170053 -0.035923
v 0.014846 2.169948 -0.050923
v 0.014846 2.170157 -0.020923
v -0.015154 2.170157 -0.020923
v -0.015154 2.169948 -0.050923
v -0.000154 2.405157 -0.037565
v 0.014846 2.405053 -0.052564
v 0.014846 2.405262 -0.022565
v -0.015154 2.405262 -0.022565
v -0.015154 2.405053 -0.052564
v -0.000154 2.673849 -0.039441
v 0.011511 2.683014 -0.054604
v 0.011764 2.683224 -0.024606
v -0.011819 2.664683 -0.024278
v -0.012071 2.664474 -0.054276
v -0.197899 2.925365 -0.039532
v -0.194472 2.910687 -0.054459
v -0.201582 2.939832 -0.054603
v -0.201327 2.940042 -0.024605
v -0.194216 2.910898 -0.024461
v -0.592971 2.829004 -0.035491
v -0.671986 2.794674 -0.049626
v -0.671986 2.824674 -0.049741
v -0.671986 2.824790 -0.019741
v -0.671986 2.794790 -0.019626
v -1.321532 2.809734 -0.034684
v -1.451441 2.794725 -0.049674
v -1.451441 2.824725 -0.049693
v -1.451441 2.824744 -0.019693
v -1.451441 2.794744 -0.019674
v -2.236041 2.809736 -0.034684
v -2.392960 2.818717 -0.053903
v -2.392960 2.828956 -0.025704
v -2.392960 2.800757 -0.015465
v -2.392960 2.790518 -0.043663
v -2.493236 2.809737 -0.034684
v 0.014846 2.673744 -0.054441
v 0.014846 2.673954 -0.024441
v -0.015154 2.673954 -0.024441
v -0.015154 2.673744 -0.054441
v -0.000154 2.976126 -0.041552
v 0.014846 2.979079 -0.026845
v -0.015154 2.979079 -0.026846
v -0.015154 2.973174 -0.056259
v 0.014846 2.973174 -0.056259
v -0.000154 3.117979 -0.070029
v 0.014846 3.120931 -0.055323
v -0.015154 3.120931 -0.055323
v -0.015154 3.115027 -0.084736
v 0.014846 3.115027 -0.084736
v -0.000154 3.528017 -0.152345
v -0.011765 2.683225 -0.024366
v -0.012125 2.683016 -0.054363
v 0.011457 2.664473 -0.054517
v 0.011818 2.664682 -0.024519
v 0.197592 2.925365 -0.043572
v 0.194218 2.910898 -0.028429
v 0.201323 2.940043 -0.028719
v 0.200965 2.939831 -0.058716
v 0.193860 2.910686 -0.058426
v 0.592665 2.829011 -0.047613
v 0.671681 2.794926 -0.033238
v 0.671680 2.824924 -0.033606
v 0.671680 2.824555 -0.063604
v 0.671681 2.794557 -0.063236
v 1.321268 2.809752 -0.048421
v 1.451186 2.794877 -0.033300
v 1.451185 2.824876 -0.033544
v 1.451185 2.824632 -0.063543
v 1.451186 2.794633 -0.063299
v 2.235718 2.809768 -0.048421
v 2.392624 2.789509 -0.054702
v 2.392624 2.803489 -0.028159
v 2.392623 2.830033 -0.042140
v 2.392623 2.816052 -0.068683
v 2.486169 2.809772 -0.048421
vn 0.4875 -0.6050 0.6295
vn 0.1710 -0.6409 -0.7483
vn -0.3449 0.6725 -0.6548
vn -0.1710 0.6409 0.7483
vn -0.8924 -0.4226 0.1579
vn -0.8924 -0.4226 0.1581
vn 0.7071 0.0101 0.7070
vn 0.7070 -0.0030 -0.7072
vn -0.7065 0.0398 -0.7066
vn -0.7071 0.0030 0.7071
vn 0.7069 0.0101 0.7073
vn -0.7065 0.0399 -0.7066
vn -0.0126 -0.9999 -0.0085
vn -0.0125 -0.9999 -0.0084
vn -0.0127 -0.9999 -0.0085
vn 0.7071 -0.0030 -0.7071
vn -0.0127 -0.9999 -0.0084
vn 0.7060 0.0793 0.7038
vn 0.7076 -0.0376 -0.7057
vn -0.7066 -0.0307 -0.7070
vn -0.7077 0.0376 0.7056
vn 0.0123 -0.9978 0.0656
vn -0.7076 0.0375 0.7056
vn 0.0122 -0.9978 0.0655
vn 0.0123 -0.9978 0.0654
vn 0.7076 -0.0376 -0.7056
vn 0.0124 -0.9978 0.0655
vn 0.7872 -0.6049 0.1199
vn 0.5775 0.6550 -0.4874
vn -0.7518 0.6594 -0.0049
vn -0.5775 -0.6550 0.4874
vn -0.2678 -0.4121 -0.8709
vn -0.5776 -0.6549 0.4873
vn -0.7518 0.6593 -0.0049
vn -0.2679 -0.4120 -0.8709
vn 0.7872 -0.6050 0.1199
vn 0.5775 0.6549 -0.4874
vn -0.2677 -0.4119 -0.8710
vn 0.7925 -0.5821 -0.1817
vn 0.5461 0.8100 -0.2136
vn -0.7081 0.5825 0.3991
vn -0.5461 -0.8100 0.2136
vn 0.7923 -0.5825 -0.1816
vn -0.3621 -0.0016 -0.9321
vn -0.5460 -0.8101 0.2135
vn -0.3620 -0.0017 -0.9322
vn -0.5461 -0.8101 0.2136
vn 0.5460 0.8101 -0.2136
vn -0.3622 -0.0017 -0.9321
vn -0.2475 -0.6051 -0.7567
vn -0.4122 -0.6411 0.6474
vn 0.1045 0.6727 0.7325
vn 0.4122 0.6411 -0.6474
vn 0.8938 -0.4222 0.1509
vn 0.8939 -0.4221 0.1510
vn 0.8938 -0.4222 0.1511
vn -0.4122 -0.6410 0.6474
vn 0.1044 0.6727 0.7325
vn 0.7064 0.0323 0.7070
vn 0.7071 0.0106 -0.7071
vn -0.7071 0.0177 -0.7069
vn -0.7071 -0.0106 0.7071
vn 0.0127 -0.9999 -0.0023
vn -0.7071 -0.0107 0.7070
vn 0.0126 -0.9999 -0.0024
vn 0.7064 0.0323 0.7071
vn 0.0126 -0.9999 -0.0023
vn 0.7071 0.0106 -0.7070
vn 0.0128 -0.9999 -0.0024
vn 0.7077 0.0592 0.7040
vn 0.7064 -0.0524 -0.7059
vn -0.7069 -0.0106 -0.7072
vn -0.7064 0.0525 0.7059
vn -0.7071 -0.0106 -0.7070
vn -0.0124 -0.9980 0.0619
vn -0.7064 0.0524 0.7058
vn -0.0123 -0.9980 0.0618
vn -0.7065 0.0524 0.7058
vn -0.0123 -0.9980 0.0617
vn 0.7064 -0.0525 -0.7058
vn 0.7065 -0.0525 -0.7058
vn 0.6044 -0.6319 0.4853
vn 0.7476 0.6603 -0.0714
vn -0.6326 0.6753 -0.3792
vn -0.7476 -0.6603 0.0714
vn 0.2392 -0.3678 -0.8986
vn 0.2391 -0.3679 -0.8986
vn 0.6044 -0.6319 0.4852
vn 0.2391 -0.3678 -0.8986
vn 0.7476 0.6603 -0.0713
vn 0.6418 -0.6666 0.3792
vn 0.6255 0.7411 0.2439
vn -0.7279 0.6667 -0.1604
vn -0.6255 -0.7411 -0.2439
vn 0.6420 -0.6663 0.3793
vn -0.7276 0.6670 -0.1603
vn 0.3651 -0.0018 -0.9310
vn 0.3650 -0.0017 -0.9310
vn 0.6418 -0.6665 0.3792
vn 0.3651 -0.0016 -0.9310
vn 0.6255 0.7411 0.2440
vn 0.3652 -0.0017 -0.9309
vn -0.7277 0.6669 -0.1603
vn -0.7032 -0.1100 -0.7025
vn 0.7070 -0.0046 -0.7072
vn 0.7033 -0.0994 0.7039
vn -0.7070 0.0046 0.7072
vn -0.7032 -0.1099 -0.7025
vn -0.0006 1.0000 -0.0070
vn -0.7071 0.0046 0.7071
vn -0.0005 1.0000 -0.0071
vn 0.7071 -0.0046 -0.7071
vn -0.0005 1.0000 -0.0069
vn -0.7042 -0.0849 0.7049
vn -0.7071 -0.0050 -0.7071
vn 0.7042 -0.0948 -0.7036
vn 0.7071 0.0049 0.7071
vn -0.0000 1.0000 -0.0069
vn 0.7071 0.0050 0.7071
vn -0.0001 1.0000 -0.0070
vn -0.7043 -0.0849 0.7048
vn -0.0000 1.0000 -0.0071
vn -0.7071 -0.0049 -0.7071
vn 0.7043 -0.0948 -0.7036
vn -0.7049 -0.0738 0.7054
vn 0.7049 -0.0836 -0.7043
vn 0.7072 0.0049 0.7070
vn -0.7047 -0.0738 0.7057
vn 0.7049 -0.0836 -0.7044
vn -0.7049 -0.0738 0.7055
vn -0.5078 -0.4831 0.7132
vn -0.5618 -0.4420 -0.6993
vn 0.5896 0.3791 -0.7132
vn 0.5618 0.4419 0.6994
vn -0.5078 -0.4831 0.7133
vn -0.6181 0.7861 -0.0002
vn 0.5618 0.4420 0.6993
vn -0.6181 0.7861 -0.0003
vn -0.5618 -0.4419 -0.6993
vn -0.1108 0.7033 0.7022
vn 0.1736 -0.6820 0.7104
vn 0.2120 -0.6786 -0.7032
vn -0.1736 0.6819 -0.7105
vn -0.1107 0.7033 0.7022
vn 0.2119 -0.6786 -0.7032
vn -0.9714 -0.2370 0.0099
vn -0.1736 0.6820 -0.7105
vn -0.9715 -0.2370 0.0098
vn -0.9715 -0.2369 0.0099
vn 0.1736 -0.6820 0.7105
vn -0.9715 -0.2369 0.0100
vn 0.0326 0.7094 0.7040
vn -0.0000 -0.7044 0.7098
vn 0.0326 -0.7095 -0.7040
vn -0.0000 0.7044 -0.7098
vn 0.0326 0.7095 0.7040
vn 0.0326 -0.7094 -0.7040
vn -1.0000 -0.0001 -0.0000
vn 0.0001 0.7044 -0.7098
vn -1.0000 -0.0000 -0.0001
vn -1.0000 -0.0000 0.0001
vn 0.0270 0.7073 0.7064
vn -0.0000 -0.7067 0.7075
vn 0.0270 -0.7073 -0.7064
vn -0.0000 0.7067 -0.7075
vn -1.0000 0.0001 -0.0000
vn -0.0000 0.7067 -0.7076
vn -0.0000 -0.7067 0.7076
vn 0.2070 -0.4141 0.8864
vn -0.0000 -0.9060 -0.4232
vn 0.2070 0.4141 -0.8864
vn -0.0000 0.9060 0.4232
vn -0.0000 0.9060 0.4233
vn 0.2069 0.4141 -0.8864
vn 0.2069 -0.4141 0.8864
vn -1.0000 0.0001 0.0001
vn -0.0000 -0.9060 -0.4233
vn -0.7054 -0.0651 0.7058
vn 0.7054 -0.0749 -0.7049
vn 0.0001 1.0000 -0.0070
vn -0.7054 -0.0651 0.7059
vn -0.6996 -0.2799 -0.6574
vn 0.7072 -0.1392 -0.6932
vn 0.6996 -0.0045 0.7145
vn -0.7071 0.1392 0.6933
vn 0.0001 0.9804 -0.1968
vn -0.0000 0.9805 -0.1967
vn -0.0001 0.9804 -0.1968
vn 0.7071 -0.1392 -0.6933
vn -0.7062 -0.1887 -0.6824
vn 0.7062 0.0893 0.7024
vn 0.7062 0.0894 0.7023
vn -0.0000 0.9804 -0.1969
vn -0.7062 -0.1886 -0.6824
vn 0.7071 -0.1391 -0.6933
vn 0.7062 0.0894 0.7024
vn 0.5053 -0.4930 -0.7083
vn 0.5643 -0.4321 0.7035
vn -0.5870 0.3890 0.7100
vn -0.5643 0.4321 -0.7035
vn 0.6180 0.7861 -0.0128
vn -0.5643 0.4321 -0.7034
vn -0.5870 0.3891 0.7099
vn 0.6179 0.7861 -0.0129
vn 0.5053 -0.4930 -0.7082
vn 0.5643 -0.4321 0.7034
vn 0.1082 0.6934 -0.7124
vn -0.1759 -0.6919 -0.7002
vn -0.2094 -0.6687 0.7134
vn 0.1759 0.6919 0.7002
vn 0.9715 -0.2368 -0.0099
vn 0.9715 -0.2369 -0.0098
vn 0.9715 -0.2369 -0.0100
vn -0.0326 0.6980 -0.7154
vn -0.0000 -0.7157 -0.6984
vn -0.0326 -0.6983 0.7150
vn -0.0000 0.7157 0.6984
vn -0.0326 -0.6980 0.7154
vn 1.0000 0.0001 -0.0000
vn -0.0001 0.7157 0.6984
vn 1.0000 -0.0000 -0.0001
vn -0.0001 0.7158 0.6983
vn 1.0000 -0.0001 -0.0000
vn 0.0001 -0.7157 -0.6984
vn 1.0000 -0.0000 0.0001
vn -0.0270 0.7011 -0.7126
vn -0.0000 -0.7128 -0.7014
vn -0.0270 -0.7011 0.7126
vn -0.0000 0.7128 0.7014
vn -0.0271 0.7011 -0.7126
vn -0.0000 0.7128 0.7013
vn -0.0000 -0.7128 -0.7013
vn -0.2211 0.9315 0.2888
vn -0.0000 0.2962 -0.9551
vn -0.2211 -0.9315 -0.2888
vn -0.0000 -0.2960 0.9552
vn -0.2212 0.9315 0.2888
vn -0.2212 -0.9315 -0.2888
vn -0.0000 -0.2961 0.9552
vn 0.0001 -0.2961 0.9552
vn 1.0000 0.0001 0.0001
vn -0.0000 0.2961 -0.9552
vn -0.2212 0.9315 0.2887
vn 1.0000 0.0001 -0.0001
vt 1.000000 1.000000
vt 0.000000 1.000000
vt 0.000000 0.000000
vt 1.000000 0.000000
vt 0.500000 0.500000
s 0
f 3/1/1 4/2/2 1/3/3
f 2/4/4 3/1/1 1/3/3
f 5/5/5 2/4/4 1/3/3
f 5/5/6 3/1/1 2/4/4
f 5/5/6 4/2/2 3/1/1
f 5/5/6 1/3/3 4/2/2
f 8/1/7 9/2/8 6/3/9
f 7/4/10 8/1/11 6/3/12
f 10/5/13 7/4/10 6/3/12
f 10/5/14 8/1/7 7/4/10
f 10/5/15 9/2/16 8/1/7
f 10/5/17 6/3/12 9/2/16
f 13/1/18 14/2/19 11/3/20
f 12/4/21 13/1/18 11/3/20
f 15/5/22 12/4/23 11/3/20
f 15/5/24 13/1/18 12/4/23
f 15/5/25 14/2/26 13/1/18
f 15/5/27 11/3/20 14/2/26
f 18/1/28 19/2/29 16/3/30
f 17/4/31 18/1/28 16/3/30
f 20/5/32 17/4/33 16/3/34
f 20/5/35 18/1/36 17/4/33
f 20/5/32 19/2/37 18/1/28
f 20/5/38 16/3/30 19/2/37
f 23/1/39 24/2/40 21/3/41
f 22/4/42 23/1/43 21/3/41
f 25/5/44 22/4/45 21/3/41
f 25/5/46 23/1/39 22/4/47
f 25/5/44 24/2/48 23/1/39
f 25/5/49 21/3/41 24/2/48
f 28/1/50 29/2/51 26/3/52
f 27/4/53 28/1/50 26/3/52
f 30/5/54 27/4/53 26/3/52
f 30/5/55 28/1/50 27/4/53
f 30/5/56 29/2/57 28/1/50
f 30/5/55 26/3/58 29/2/57
f 33/1/59 34/2/60 31/3/61
f 32/4/62 33/1/59 31/3/61
f 35/5/63 32/4/64 31/3/61
f 35/5/65 33/1/66 32/4/64
f 35/5/67 34/2/68 33/1/59
f 35/5/69 31/3/61 34/2/68
f 38/1/70 39/2/71 36/3/72
f 37/4/73 38/1/70 36/3/74
f 40/5/75 37/4/76 36/3/74
f 40/5/77 38/1/70 37/4/78
f 40/5/79 39/2/80 38/1/70
f 40/5/79 36/3/74 39/2/81
f 43/1/82 44/2/83 41/3/84
f 42/4/85 43/1/82 41/3/84
f 45/5/86 42/4/85 41/3/84
f 45/5/87 43/1/88 42/4/85
f 45/5/89 44/2/83 43/1/88
f 45/5/87 41/3/84 44/2/90
f 48/1/91 49/2/92 46/3/93
f 47/4/94 48/1/95 46/3/96
f 50/5/97 47/4/94 46/3/96
f 50/5/98 48/1/99 47/4/94
f 50/5/100 49/2/101 48/1/99
f 50/5/102 46/3/103 49/2/101
f 53/1/104 54/2/105 51/3/106
f 52/4/107 53/1/108 51/3/106
f 55/5/109 52/4/110 51/3/106
f 55/5/111 53/1/108 52/4/110
f 55/5/109 54/2/112 53/1/108
f 55/5/113 51/3/106 54/2/112
f 58/1/114 59/2/115 56/3/116
f 57/4/117 58/1/114 56/3/116
f 60/5/118 57/4/119 56/3/116
f 60/5/120 58/1/121 57/4/119
f 60/5/122 59/2/123 58/1/114
f 60/5/120 56/3/124 59/2/123
f 63/1/125 64/2/123 61/3/126
f 62/4/127 63/1/128 61/3/126
f 65/5/122 62/4/117 61/3/129
f 65/5/120 63/1/125 62/4/117
f 65/5/118 64/2/123 63/1/130
f 65/5/120 61/3/126 64/2/123
f 68/1/131 69/2/132 66/3/133
f 67/4/134 68/1/135 66/3/133
f 70/5/136 67/4/137 66/3/133
f 70/5/138 68/1/131 67/4/137
f 70/5/136 69/2/139 68/1/135
f 70/5/138 66/3/133 69/2/139
f 73/1/140 74/2/141 71/3/142
f 72/4/143 73/1/144 71/3/145
f 75/5/146 72/4/147 71/3/142
f 75/5/148 73/1/144 72/4/147
f 75/5/149 74/2/150 73/1/144
f 75/5/151 71/3/142 74/2/150
f 78/1/152 79/2/153 76/3/154
f 77/4/155 78/1/156 76/3/157
f 80/5/158 77/4/159 76/3/157
f 80/5/160 78/1/152 77/4/155
f 80/5/158 79/2/153 78/1/152
f 80/5/161 76/3/157 79/2/153
f 83/1/162 84/2/163 81/3/164
f 82/4/165 83/1/162 81/3/164
f 85/5/166 82/4/167 81/3/164
f 85/5/161 83/1/162 82/4/165
f 85/5/166 84/2/168 83/1/162
f 85/5/161 81/3/164 84/2/163
f 88/1/169 89/2/170 86/3/171
f 87/4/172 88/1/169 86/3/171
f 90/5/160 87/4/173 86/3/174
f 90/5/166 88/1/175 87/4/173
f 90/5/176 89/2/177 88/1/175
f 90/5/166 86/3/174 89/2/177
f 93/1/178 94/2/115 91/3/179
f 92/4/117 93/1/178 91/3/179
f 95/5/122 92/4/119 91/3/179
f 95/5/180 93/1/178 92/4/119
f 95/5/118 94/2/123 93/1/181
f 95/5/120 91/3/179 94/2/123
f 98/1/182 99/2/183 96/3/184
f 97/4/185 98/1/182 96/3/184
f 100/5/186 97/4/185 96/3/184
f 100/5/187 98/1/182 97/4/185
f 100/5/188 99/2/189 98/1/182
f 100/5/187 96/3/184 99/2/189
f 103/1/190 104/2/183 101/3/191
f 102/4/185 103/1/190 101/3/191
f 105/5/188 102/4/185 101/3/192
f 105/5/193 103/1/194 102/4/185
f 105/5/186 104/2/195 103/1/194
f 105/5/187 101/3/196 104/2/195
f 108/1/197 109/2/198 106/3/199
f 107/4/200 108/1/197 106/3/199
f 110/5/201 107/4/202 106/3/203
f 110/5/204 108/1/205 107/4/202
f 110/5/201 109/2/206 108/1/205
f 110/5/204 106/3/199 109/2/206
f 113/1/207 114/2/208 111/3/209
f 112/4/210 113/1/207 111/3/209
f 115/5/211 112/4/210 111/3/209
f 115/5/212 113/1/207 112/4/210
f 115/5/211 114/2/208 113/1/207
f 115/5/213 111/3/209 114/2/208
f 118/1/214 119/2/215 116/3/216
f 117/4/217 118/1/214 116/3/218
f 120/5/219 117/4/220 116/3/218
f 120/5/221 118/1/214 117/4/222
f 120/5/223 119/2/224 118/1/214
f 120/5/225 116/3/218 119/2/215
f 123/1/226 124/2/227 121/3/228
f 122/4/229 123/1/230 121/3/228
f 125/5/219 122/4/231 121/3/228
f 125/5/225 123/1/226 122/4/231
f 125/5/223 124/2/232 123/1/226
f 125/5/225 121/3/228 124/2/232
f 128/1/233 129/2/234 126/3/235
f 127/4/236 128/1/237 126/3/238
f 130/5/225 127/4/239 126/3/238
f 130/5/219 128/1/237 127/4/240
f 130/5/241 129/2/242 128/1/243
f 130/5/244 126/3/238 129/2/242
