# Blender 3.6.4
# www.blender.org
o massive
v -0.012514 4.461689 -0.011903
v -0.013196 4.461689 0.038093
v 0.012480 4.418786 0.038443
v 0.013162 4.418787 -0.011552
v -0.453334 4.168889 0.007086
v -0.478340 4.168923 -0.017907
v -0.478326 4.169306 0.032091
v -0.428328 4.168854 0.032080
v -0.428342 4.168471 -0.017918
v -0.471335 2.179482 0.022315
v -0.496318 2.177869 -0.002649
v -0.496349 2.180608 0.047275
v -0.446351 2.181096 0.047279
v -0.446321 2.178357 -0.002646
v -0.453334 0.332679 0.123640
v -0.474427 0.353764 0.104653
v -0.480726 0.311377 0.130415
v -0.432241 0.311594 0.142627
v -0.425942 0.353981 0.116865
v -0.325080 0.007654 -0.379768
v -0.344543 0.036190 -0.387311
v -0.352084 -0.013208 -0.389018
v -0.305618 -0.020882 -0.372225
v -0.298076 0.028516 -0.370518
v -0.220006 0.001755 -0.673205
v 0.012935 4.461690 0.038211
v 0.012705 4.461690 -0.011789
v -0.012969 4.418785 -0.011670
v -0.012739 4.418785 0.038329
v 0.453333 4.168944 0.011183
v 0.428343 4.168711 -0.013825
v 0.428326 4.168725 0.036175
v 0.478323 4.169177 0.036192
v 0.478341 4.169163 -0.013808
v 0.471337 2.178806 0.011740
v 0.446322 2.177537 -0.013212
v 0.446355 2.180563 0.036697
v 0.496353 2.180075 0.036692
v 0.496319 2.177050 -0.013216
v 0.453340 0.332609 0.123659
v 0.425886 0.353821 0.116846
v 0.432358 0.311623 0.142875
v 0.480794 0.311401 0.130472
v 0.474322 0.353599 0.104443
v 0.325086 0.007584 -0.371377
v 0.298209 0.028605 -0.362116
v 0.305491 -0.020835 -0.363740
v 0.351963 -0.013435 -0.380638
v 0.344682 0.036005 -0.379014
v 0.220012 0.001685 -0.662926
v 0.024983 4.441060 0.038257
v -0.025017 4.441057 0.038257
v -0.025017 4.439415 -0.011716
v 0.024983 4.439418 -0.011716
v -0.000047 4.930000 -0.002814
v 0.024953 4.929180 -0.027801
v 0.024953 4.930821 0.022172
v -0.025047 4.930821 0.022172
v -0.025047 4.929180 -0.027801
v -0.000047 5.501390 -0.021580
v 0.024953 5.500569 -0.046566
v 0.024953 5.502210 0.003407
v -0.025047 5.502210 0.003407
v -0.025047 5.500569 -0.046566
v -0.000047 6.154407 -0.043025
v 0.022226 6.165216 -0.068266
v 0.021938 6.166857 -0.018294
v -0.022319 6.143597 -0.017785
v -0.022031 6.141956 -0.067757
v -0.343107 6.806621 -0.066421
v -0.337427 6.781434 -0.090574
v -0.348521 6.830160 -0.092240
v -0.348788 6.831807 -0.042268
v -0.337694 6.783082 -0.040602
v -1.021681 6.652170 -0.064959
v -1.021680 6.626437 -0.089203
v -1.021680 6.676414 -0.090693
v -1.021680 6.677904 -0.040715
v -1.021680 6.627926 -0.039225
v -2.651788 6.652162 -0.064959
v -2.651788 6.626404 -0.089177
v -2.651788 6.676380 -0.090717
v -2.651788 6.677920 -0.040741
v -2.651788 6.627944 -0.039201
v -4.112335 6.652153 -0.064958
v -4.112334 6.666771 -0.097151
v -4.112334 6.684346 -0.050341
v -4.112336 6.637537 -0.032766
v -4.112336 6.619962 -0.079576
v -4.278432 6.652159 -0.064961
v 0.024953 6.153586 -0.068012
v 0.024953 6.155227 -0.018039
v -0.025047 6.155227 -0.018039
v -0.025047 6.153586 -0.068012
v -0.000047 6.889050 -0.067152
v 0.024953 6.894479 -0.042749
v -0.025047 6.894479 -0.042749
v -0.025047 6.883620 -0.091555
v 0.024953 6.883620 -0.091555
v -0.000047 7.177941 -0.131433
v 0.024953 7.183371 -0.107029
v -0.025047 7.183371 -0.107029
v -0.025047 7.172512 -0.155836
v 0.024953 7.172512 -0.155836
v -0.000047 8.234130 -0.366443
v -0.021924 6.166860 -0.018200
v -0.022425 6.165219 -0.068171
v 0.021831 6.141953 -0.067850
v 0.022332 6.143594 -0.017880
v 0.343014 6.806622 -0.067883
v 0.337713 6.783082 -0.042041
v 0.348798 6.831808 -0.043755
v 0.348315 6.830160 -0.093725
v 0.337230 6.781435 -0.092011
v 1.021593 6.652199 -0.069346
v 1.021594 6.627962 -0.043605
v 1.021593 6.677939 -0.045109
v 1.021593 6.676435 -0.095087
v 1.021594 6.626457 -0.093582
v 2.651856 6.652225 -0.069348
v 2.651856 6.628011 -0.043585
v 2.651855 6.677987 -0.045133
v 2.651855 6.676439 -0.095109
v 2.651856 6.626463 -0.093561
v 4.112475 6.652250 -0.069349
v 4.112472 6.618281 -0.079152
v 4.112472 6.642447 -0.035380
v 4.112478 6.686219 -0.059545
v 4.112478 6.662054 -0.103318
v 4.225575 6.652239 -0.069341
vn 0.4100 -0.5711 0.7112
vn 0.3728 -0.6068 -0.7020
vn -0.2954 0.6397 -0.7096
vn -0.3727 0.6067 0.7021
vn -0.8580 -0.5136 -0.0118
vn -0.3728 0.6067 0.7021
vn -0.8580 -0.5135 -0.0117
vn -0.8580 -0.5136 -0.0116
vn 0.3727 -0.6067 -0.7021
vn 0.7073 0.0168 0.7067
vn 0.7068 -0.0118 -0.7073
vn -0.7070 0.0187 -0.7070
vn -0.7068 0.0118 0.7073
vn -0.0090 -0.9999 0.0077
vn -0.7069 0.0119 0.7072
vn -0.7070 0.0188 -0.7070
vn -0.0091 -0.9999 0.0076
vn -0.0091 -0.9999 0.0078
vn 0.7069 -0.0118 -0.7072
vn 0.7063 0.0647 0.7049
vn 0.7075 -0.0318 -0.7060
vn -0.7071 -0.0265 -0.7067
vn -0.7074 0.0318 0.7060
vn -0.7067 -0.0265 -0.7070
vn 0.0097 -0.9985 0.0547
vn -0.7075 0.0318 0.7060
vn 0.0096 -0.9985 0.0548
vn -0.7075 0.0319 0.7060
vn 0.0097 -0.9984 0.0549
vn 0.7075 -0.0319 -0.7060
vn 0.0098 -0.9985 0.0548
vn 0.5836 -0.5648 0.5835
vn 0.7747 0.6026 -0.1917
vn -0.6077 0.6259 -0.4888
vn -0.7747 -0.6026 0.1917
vn 0.2093 -0.5305 -0.8215
vn -0.7747 -0.6025 0.1916
vn -0.6077 0.6259 -0.4889
vn 0.2094 -0.5304 -0.8215
vn 0.5836 -0.5649 0.5834
vn -0.7748 -0.6025 0.1916
vn 0.2093 -0.5305 -0.8214
vn 0.7748 0.6025 -0.1917
vn 0.5836 -0.5648 0.5834
vn 0.2092 -0.5304 -0.8215
vn 0.5090 -0.7999 0.3181
vn 0.7637 0.5901 0.2616
vn -0.5850 0.8041 -0.1059
vn -0.7637 -0.5901 -0.2616
vn 0.3371 -0.0188 -0.9413
vn -0.7638 -0.5901 -0.2617
vn -0.5850 0.8041 -0.1060
vn 0.3370 -0.0189 -0.9413
vn 0.5090 -0.7999 0.3180
vn 0.7638 0.5901 0.2616
vn 0.5090 -0.7998 0.3180
vn -0.5849 0.8041 -0.1059
vn -0.4228 -0.5711 -0.7036
vn -0.3598 -0.6067 0.7088
vn 0.3082 0.6397 0.7041
vn 0.3598 0.6067 -0.7088
vn 0.8581 -0.5135 -0.0040
vn 0.3599 0.6067 -0.7088
vn 0.8581 -0.5134 -0.0039
vn 0.3599 0.6068 -0.7088
vn 0.8581 -0.5135 -0.0039
vn -0.3598 -0.6068 0.7088
vn 0.8580 -0.5136 -0.0040
vn 0.7066 0.0244 0.7072
vn 0.7074 0.0062 -0.7068
vn -0.7069 0.0112 -0.7072
vn -0.7073 -0.0062 0.7069
vn 0.0090 -1.0000 0.0004
vn -0.7073 -0.0063 0.7069
vn 0.0089 -1.0000 0.0003
vn 0.0090 -1.0000 0.0002
vn 0.7073 0.0063 -0.7069
vn 0.0091 -1.0000 0.0003
vn 0.7076 0.0550 0.7045
vn 0.7065 -0.0497 -0.7059
vn -0.7072 -0.0168 -0.7068
vn -0.7065 0.0497 0.7059
vn -0.0097 -0.9981 0.0604
vn -0.7066 0.0496 0.7059
vn -0.0098 -0.9981 0.0605
vn -0.0097 -0.9981 0.0606
vn 0.7066 -0.0497 -0.7059
vn -0.0096 -0.9981 0.0605
vn 0.7875 -0.5676 0.2400
vn 0.5935 0.5936 -0.5435
vn -0.7629 0.6301 -0.1448
vn -0.5934 -0.5937 0.5435
vn -0.2116 -0.5365 -0.8169
vn -0.5935 -0.5936 0.5435
vn -0.2118 -0.5364 -0.8170
vn -0.2117 -0.5365 -0.8169
vn -0.2116 -0.5364 -0.8170
vn 0.7937 -0.5886 -0.1537
vn 0.5542 0.8039 -0.2160
vn -0.7169 0.5929 0.3668
vn -0.5542 -0.8039 0.2160
vn -0.3390 -0.0189 -0.9406
vn -0.5543 -0.8038 0.2160
vn -0.3391 -0.0191 -0.9406
vn 0.7937 -0.5885 -0.1537
vn 0.5542 0.8038 -0.2161
vn -0.3391 -0.0190 -0.9406
vn -0.7169 0.5929 0.3669
vn -0.7053 -0.0951 -0.7025
vn 0.7072 -0.0232 -0.7067
vn 0.7053 -0.0487 0.7073
vn -0.7072 0.0232 0.7067
vn -0.7049 -0.0951 -0.7029
vn -0.0002 0.9995 -0.0328
vn -0.7071 0.0232 0.7067
vn 0.7053 -0.0487 0.7072
vn -0.0000 0.9995 -0.0327
vn 0.7071 -0.0232 -0.7067
vn -0.0001 0.9995 -0.0329
vn -0.7058 -0.0385 0.7074
vn -0.7071 -0.0232 -0.7068
vn 0.7058 -0.0848 -0.7034
vn 0.7071 0.0232 0.7068
vn 0.7058 -0.0849 -0.7034
vn 0.7071 0.0232 0.7067
vn 0.7058 -0.0849 -0.7033
vn 0.0001 0.9995 -0.0328
vn -0.7057 -0.0386 0.7074
vn -0.0000 0.9995 -0.0329
vn -0.7071 -0.0232 -0.7067
vn -0.7058 -0.0386 0.7074
vn -0.0001 0.9995 -0.0328
vn 0.7057 -0.0849 -0.7034
vn -0.7061 -0.0308 0.7075
vn 0.7061 -0.0772 -0.7039
vn -0.6069 -0.3478 0.7146
vn -0.6218 -0.3522 -0.6996
vn 0.6515 0.2630 -0.7116
vn 0.6219 0.3522 0.6995
vn -0.6070 -0.3477 0.7146
vn -0.4653 0.8846 -0.0318
vn 0.6218 0.3522 0.6995
vn -0.4654 0.8845 -0.0317
vn -0.4653 0.8846 -0.0316
vn -0.6218 -0.3522 -0.6995
vn -0.6218 -0.3521 -0.6995
vn -0.1110 0.7227 0.6822
vn 0.1531 -0.6658 0.7302
vn 0.2099 -0.7002 -0.6824
vn -0.1531 0.6657 -0.7303
vn -0.9750 -0.2220 0.0021
vn -0.1531 0.6658 -0.7303
vn 0.2100 -0.7002 -0.6824
vn -0.9751 -0.2219 0.0022
vn 0.1531 -0.6658 0.7303
vn -0.9751 -0.2219 0.0020
vn 0.0217 0.7277 0.6856
vn -0.0000 -0.6857 0.7279
vn 0.0217 -0.7277 -0.6856
vn -0.0000 0.6858 -0.7278
vn -1.0000 -0.0001 -0.0000
vn -0.0000 0.6857 -0.7279
vn -1.0000 -0.0000 0.0001
vn -0.0001 0.6857 -0.7278
vn -1.0000 0.0001 -0.0000
vn 0.0242 0.7283 0.6848
vn -0.0000 -0.6850 0.7285
vn 0.0242 -0.7283 -0.6848
vn -0.0000 0.6849 -0.7286
vn -0.0000 0.6850 -0.7285
vn -0.0000 0.6850 -0.7286
vn -0.0000 -0.6850 0.7286
vn 0.2082 -0.4044 0.8906
vn -0.0000 -0.9105 -0.4135
vn 0.2082 0.4044 -0.8906
vn -0.0000 0.9105 0.4135
vn 0.0001 0.9105 0.4134
vn -1.0000 0.0001 -0.0001
vn -1.0000 0.0001 0.0001
vn -0.0000 -0.9105 -0.4134
vn 0.2083 0.4044 -0.8906
vn -0.7063 -0.0248 0.7075
vn 0.7063 -0.0712 -0.7043
vn -0.7065 -0.0249 0.7073
vn -0.7021 -0.2683 -0.6596
vn 0.7072 -0.1536 -0.6902
vn 0.7021 0.0367 0.7111
vn -0.7072 0.1536 0.6902
vn -0.7025 -0.2682 -0.6592
vn 0.0001 0.9761 -0.2172
vn -0.7071 0.1536 0.6902
vn -0.0000 0.9761 -0.2171
vn -0.0001 0.9761 -0.2172
vn 0.7071 -0.1535 -0.6902
vn -0.0000 0.9761 -0.2173
vn 0.7071 -0.1536 -0.6902
vn -0.7067 -0.1854 -0.6828
vn 0.7071 -0.1536 -0.6903
vn 0.7067 0.1216 0.6969
vn 0.7067 0.1216 0.6970
vn -0.7071 0.1535 0.6902
vn -0.7067 -0.1854 -0.6827
vn 0.5958 -0.3942 -0.6997
vn 0.6329 -0.3058 0.7113
vn -0.6404 0.3095 0.7030
vn -0.6330 0.3058 -0.7112
vn 0.4653 0.8845 -0.0336
vn -0.6404 0.3094 0.7030
vn 0.4652 0.8846 -0.0337
vn -0.6329 0.3058 -0.7112
vn 0.4653 0.8845 -0.0338
vn 0.6329 -0.3058 0.7112
vn 0.4653 0.8845 -0.0337
vn 0.1003 0.6762 -0.7299
vn -0.1636 -0.7124 -0.6824
vn -0.1992 -0.6537 0.7301
vn 0.1636 0.7123 0.6825
vn 0.9751 -0.2218 -0.0021
vn 0.1636 0.7124 0.6824
vn -0.1992 -0.6536 0.7301
vn 0.9751 -0.2219 -0.0020
vn 0.1002 0.6762 -0.7299
vn 0.9750 -0.2220 -0.0021
vn -0.1636 -0.7124 -0.6825
vn 0.9751 -0.2219 -0.0022
vn -0.0217 0.6853 -0.7279
vn -0.0000 -0.7280 -0.6856
vn -0.0217 -0.6856 0.7277
vn -0.0000 0.7281 0.6855
vn -0.0217 0.6856 -0.7277
vn -0.0216 -0.6853 0.7279
vn 1.0000 -0.0001 -0.0000
vn -0.0217 -0.6854 0.7279
vn 1.0000 -0.0000 0.0001
vn -0.0217 0.6854 -0.7279
vn 1.0000 0.0001 -0.0000
vn 0.0001 -0.7281 -0.6855
vn 1.0000 -0.0000 -0.0001
vn 0.0001 -0.7280 -0.6855
vn -0.0242 0.6847 -0.7285
vn -0.0000 -0.7287 -0.6848
vn -0.0242 -0.6849 0.7282
vn -0.0000 0.7287 0.6848
vn -0.0242 0.6849 -0.7282
vn -0.0242 -0.6847 0.7285
vn -0.0000 0.7287 0.6849
vn -0.0242 -0.6847 0.7284
vn -0.0000 -0.7287 -0.6849
vn -0.0242 0.6847 -0.7284
vn -0.2983 0.9171 0.2646
vn 0.0001 0.2772 -0.9608
vn -0.2984 -0.9170 -0.2647
vn -0.0001 -0.2773 0.9608
vn 1.0000 -0.0000 -0.0000
vn -0.0000 -0.2773 0.9608
vn 1.0000 -0.0001 0.0001
vn 0.0001 0.2773 -0.9608
vn 1.0000 -0.0002 0.0001
vn -0.0000 0.2773 -0.9608
vt 1.000000 1.000000
vt 0.000000 1.000000
vt 0.000000 0.000000
vt 1.000000 0.000000
vt 0.500000 0.500000
s 0
f 3/1/1 4/2/2 1/3/3
f 2/4/4 3/1/1 1/3/3
f 5/5/5 2/4/6 1/3/3
f 5/5/7 3/1/1 2/4/6
f 5/5/8 4/2/9 3/1/1
f 5/5/7 1/3/3 4/2/9
f 8/1/10 9/2/11 6/3/12
f 7/4/13 8/1/10 6/3/12
f 10/5/14 7/4/15 6/3/16
f 10/5/17 8/1/10 7/4/15
f 10/5/18 9/2/19 8/1/10
f 10/5/14 6/3/16 9/2/19
f 13/1/20 14/2/21 11/3/22
f 12/4/23 13/1/20 11/3/24
f 15/5/25 12/4/26 11/3/24
f 15/5/27 13/1/20 12/4/28
f 15/5/29 14/2/30 13/1/20
f 15/5/31 11/3/24 14/2/30
f 18/1/32 19/2/33 16/3/34
f 17/4/35 18/1/32 16/3/34
f 20/5/36 17/4/37 16/3/38
f 20/5/39 18/1/40 17/4/41
f 20/5/42 19/2/43 18/1/44
f 20/5/45 16/3/38 19/2/43
f 23/1/46 24/2/47 21/3/48
f 22/4/49 23/1/46 21/3/48
f 25/5/50 22/4/51 21/3/52
f 25/5/53 23/1/54 22/4/51
f 25/5/50 24/2/55 23/1/56
f 25/5/53 21/3/57 24/2/55
f 28/1/58 29/2/59 26/3/60
f 27/4/61 28/1/58 26/3/60
f 30/5/62 27/4/63 26/3/60
f 30/5/64 28/1/58 27/4/65
f 30/5/66 29/2/67 28/1/58
f 30/5/68 26/3/60 29/2/67
f 33/1/69 34/2/70 31/3/71
f 32/4/72 33/1/69 31/3/71
f 35/5/73 32/4/74 31/3/71
f 35/5/75 33/1/69 32/4/74
f 35/5/76 34/2/77 33/1/69
f 35/5/78 31/3/71 34/2/77
f 38/1/79 39/2/80 36/3/81
f 37/4/82 38/1/79 36/3/81
f 40/5/83 37/4/84 36/3/81
f 40/5/85 38/1/79 37/4/84
f 40/5/86 39/2/87 38/1/79
f 40/5/88 36/3/81 39/2/87
f 43/1/89 44/2/90 41/3/91
f 42/4/92 43/1/89 41/3/91
f 45/5/93 42/4/94 41/3/91
f 45/5/95 43/1/89 42/4/94
f 45/5/96 44/2/90 43/1/89
f 45/5/97 41/3/91 44/2/90
f 48/1/98 49/2/99 46/3/100
f 47/4/101 48/1/98 46/3/100
f 50/5/102 47/4/103 46/3/100
f 50/5/104 48/1/105 47/4/103
f 50/5/102 49/2/106 48/1/98
f 50/5/107 46/3/108 49/2/106
f 53/1/109 54/2/110 51/3/111
f 52/4/112 53/1/113 51/3/111
f 55/5/114 52/4/115 51/3/116
f 55/5/117 53/1/109 52/4/115
f 55/5/114 54/2/118 53/1/109
f 55/5/119 51/3/111 54/2/118
f 58/1/120 59/2/121 56/3/122
f 57/4/123 58/1/120 56/3/124
f 60/5/117 57/4/125 56/3/126
f 60/5/127 58/1/128 57/4/125
f 60/5/129 59/2/130 58/1/131
f 60/5/132 56/3/133 59/2/130
f 63/1/134 64/2/121 61/3/135
f 62/4/123 63/1/134 61/3/135
f 65/5/117 62/4/125 61/3/135
f 65/5/132 63/1/134 62/4/125
f 65/5/129 64/2/130 63/1/134
f 65/5/132 61/3/135 64/2/130
f 68/1/136 69/2/137 66/3/138
f 67/4/139 68/1/140 66/3/138
f 70/5/141 67/4/142 66/3/138
f 70/5/143 68/1/136 67/4/142
f 70/5/144 69/2/145 68/1/136
f 70/5/143 66/3/138 69/2/146
f 73/1/147 74/2/148 71/3/149
f 72/4/150 73/1/147 71/3/149
f 75/5/151 72/4/152 71/3/153
f 75/5/154 73/1/147 72/4/152
f 75/5/151 74/2/155 73/1/147
f 75/5/156 71/3/153 74/2/155
f 78/1/157 79/2/158 76/3/159
f 77/4/160 78/1/157 76/3/159
f 80/5/161 77/4/162 76/3/159
f 80/5/163 78/1/157 77/4/164
f 80/5/165 79/2/158 78/1/157
f 80/5/163 76/3/159 79/2/158
f 83/1/166 84/2/167 81/3/168
f 82/4/169 83/1/166 81/3/168
f 85/5/161 82/4/170 81/3/168
f 85/5/163 83/1/166 82/4/171
f 85/5/165 84/2/167 83/1/166
f 85/5/163 81/3/168 84/2/172
f 88/1/173 89/2/174 86/3/175
f 87/4/176 88/1/173 86/3/175
f 90/5/163 87/4/177 86/3/175
f 90/5/178 88/1/173 87/4/177
f 90/5/179 89/2/180 88/1/173
f 90/5/165 86/3/181 89/2/174
f 93/1/182 94/2/121 91/3/183
f 92/4/123 93/1/184 91/3/183
f 95/5/129 92/4/125 91/3/183
f 95/5/127 93/1/182 92/4/125
f 95/5/117 94/2/130 93/1/182
f 95/5/127 91/3/183 94/2/130
f 98/1/185 99/2/186 96/3/187
f 97/4/188 98/1/189 96/3/187
f 100/5/190 97/4/191 96/3/187
f 100/5/192 98/1/185 97/4/191
f 100/5/193 99/2/194 98/1/185
f 100/5/195 96/3/187 99/2/196
f 103/1/197 104/2/198 101/3/199
f 102/4/188 103/1/197 101/3/200
f 105/5/193 102/4/201 101/3/200
f 105/5/192 103/1/202 102/4/201
f 105/5/193 104/2/196 103/1/197
f 105/5/195 101/3/199 104/2/196
f 108/1/203 109/2/204 106/3/205
f 107/4/206 108/1/203 106/3/205
f 110/5/207 107/4/206 106/3/208
f 110/5/209 108/1/203 107/4/210
f 110/5/211 109/2/212 108/1/203
f 110/5/213 106/3/208 109/2/212
f 113/1/214 114/2/215 111/3/216
f 112/4/217 113/1/214 111/3/216
f 115/5/218 112/4/219 111/3/220
f 115/5/221 113/1/222 112/4/219
f 115/5/223 114/2/224 113/1/222
f 115/5/225 111/3/216 114/2/224
f 118/1/226 119/2/227 116/3/228
f 117/4/229 118/1/230 116/3/231
f 120/5/232 117/4/229 116/3/233
f 120/5/234 118/1/235 117/4/229
f 120/5/236 119/2/237 118/1/235
f 120/5/238 116/3/233 119/2/239
f 123/1/240 124/2/241 121/3/242
f 122/4/243 123/1/244 121/3/245
f 125/5/232 122/4/246 121/3/247
f 125/5/234 123/1/240 122/4/246
f 125/5/236 124/2/248 123/1/249
f 125/5/238 121/3/245 124/2/248
f 128/1/250 129/2/251 126/3/252
f 127/4/253 128/1/250 126/3/252
f 130/5/232 127/4/253 126/3/252
f 130/5/254 128/1/250 127/4/255
f 130/5/256 129/2/257 128/1/250
f 130/5/258 126/3/252 129/2/259
