# Export of DevScene
# from Aaro4130 OBJ Exporter v2.0
v -0.003361946 0.799253 -0.004553132
v -0.001884028 0.799253 0.005337053
v 0.003361946 0.7907757 0.004553132
v 0.001884028 0.7907757 -0.005337053
v -0.09120483 0.7373143 0.013629
vn -0.2425244 0.3652214 -0.3756708
vn -0.1538302 0.3460858 0.4357686
vn 0.3053228 -0.3254925 0.3662866
vn 0.1538302 -0.3460858 -0.4357686
vn -0.4840645 -0.3062394 0.07233462
vt 0 0
vt 1 0
vt 1 1
vt 0 1
vt 0.5 0.5
usemtl UI_VROverlay_NoZTest
f 3/3/3 4/4/4 1/1/1
f 2/2/2 3/3/3 1/1/1
f 5/5/5 2/2/2 1/1/1
f 5/5/5 3/3/3 2/2/2
f 5/5/5 4/4/4 3/3/3
f 5/5/5 1/1/1 4/4/4
v -0.08252411 0.7459694 0.006584649
v -0.08252411 0.7459694 0.01658465
v -0.07252411 0.7459694 0.01658465
v -0.07252411 0.7459694 0.006584649
v -0.07752411 0.3357062 0.01158465
vn -0.4081877 0.009949412 -0.4081877
vn -0.4082483 -7.240225E-10 0.4082482
vn 0.4081877 0.009949411 0.4081877
vn 0.4082483 1.086034E-09 -0.4082482
vn 0 -0.5773503 0
vt 0 0
vt 1 0
vt 1 1
vt 0 1
vt 0.5 0.5
usemtl UI_VROverlay_NoZTest
f 8/8/8 9/9/9 6/6/6
f 7/7/7 8/8/8 6/6/6
f 10/10/10 7/7/7 6/6/6
f 10/10/10 8/8/8 7/7/7
f 10/10/10 9/9/9 8/8/8
f 10/10/10 6/6/6 9/9/9
v -0.08252137 0.3968058 0.006601295
v -0.0825266 0.3976158 0.01656843
v -0.07252685 0.3976857 0.016568
v -0.07252162 0.3968757 0.006600863
v -0.07486175 0.01660618 0.04252106
vn -0.4080292 -0.02526498 -0.4076852
vn -0.4084519 0.03021581 0.4069243
vn 0.4078802 0.04657019 0.4059536
vn 0.4084519 -0.03021581 -0.4069243
vn 0.00402487 -0.5754389 0.04676869
vt 0 0
vt 1 0
vt 1 1
vt 0 1
vt 0.5 0.5
usemtl UI_VROverlay_NoZTest
f 13/13/13 14/14/14 11/11/11
f 12/12/12 13/13/13 11/11/11
f 15/15/15 12/12/12 11/11/11
f 15/15/15 13/13/13 12/12/12
f 15/15/15 14/14/14 13/13/13
f 15/15/15 11/11/11 14/14/14
v -0.08113686 0.07739995 0.03653823
v -0.07870398 0.07003579 0.04285095
v -0.06938536 0.07000437 0.03922296
v -0.07181824 0.07736852 0.03291024
v -0.1088598 -0.01074865 -0.04768742
vn -0.4701966 0.3235295 -0.08704636
vn -0.2811092 -0.2993574 0.4058277
vn 0.4877734 -0.27935 0.1318103
vn 0.2811092 0.2993574 -0.4058277
vn -0.1553962 -0.3905907 -0.395758
vt 0 0
vt 1 0
vt 1 1
vt 0 1
vt 0.5 0.5
usemtl UI_VROverlay_NoZTest
f 18/18/18 19/19/19 16/16/16
f 17/17/17 18/18/18 16/16/16
f 20/20/20 17/17/17 16/16/16
f 20/20/20 18/18/18 17/17/17
f 20/20/20 19/19/19 18/18/18
f 20/20/20 16/16/16 19/19/19
v -0.1088613 0.005788028 -0.03175123
v -0.107032 -0.003998203 -0.03269111
v -0.09877871 -0.001950085 -0.03795316
v -0.100608 0.007836146 -0.03701328
v -0.133939 0.0008653329 -0.08250251
vn -0.3700384 0.3147942 0.3119448
vn -0.2622567 -0.4831353 0.1764515
vn 0.4467993 -0.312109 -0.1905038
vn 0.2622567 0.4831353 -0.1764515
vn -0.3084236 -0.01078948 -0.4879464
vt 0 0
vt 1 0
vt 1 1
vt 0 1
vt 0.5 0.5
usemtl UI_VROverlay_NoZTest
f 23/23/23 24/24/24 21/21/21
f 22/22/22 23/23/23 21/21/21
f 25/25/25 22/22/22 21/21/21
f 25/25/25 23/23/23 22/22/22
f 25/25/25 24/24/24 23/23/23
f 25/25/25 21/21/21 24/24/24
v 0.001874534 0.7992533 0.005340154
v 0.003369151 0.7992533 -0.004547521
v -0.001874534 0.7907754 -0.005340154
v -0.003369151 0.7907754 0.004547521
v 0.09120483 0.7373143 0.01378649
vn 0.1213451 0.3652391 0.4303592
vn 0.27509 0.3461105 -0.3713035
vn -0.1841206 -0.3255247 -0.4398484
vn -0.27509 -0.3461106 0.3713035
vn 0.4839761 -0.3061836 0.07315807
vt 0 0
vt 1 0
vt 1 1
vt 0 1
vt 0.5 0.5
usemtl UI_VROverlay_NoZTest
f 28/28/28 29/29/29 26/26/26
f 27/27/27 28/28/28 26/26/26
f 30/30/30 27/27/27 26/26/26
f 30/30/30 28/28/28 27/27/27
f 30/30/30 29/29/29 28/28/28
f 30/30/30 26/26/26 29/29/29
v 0.07252411 0.7459694 0.006718513
v 0.07252411 0.7459694 0.01671851
v 0.08252411 0.7459694 0.01671851
v 0.08252411 0.7459694 0.006718514
v 0.07752411 0.3356927 0.01171851
vn -0.4081877 0.009949084 -0.4081877
vn -0.4082483 -7.239986E-10 0.4082482
vn 0.4081877 0.009949082 0.4081877
vn 0.4082483 1.085998E-09 -0.4082482
vn 0 -0.5773503 0
vt 0 0
vt 1 0
vt 1 1
vt 0 1
vt 0.5 0.5
usemtl UI_VROverlay_NoZTest
f 33/33/33 34/34/34 31/31/31
f 32/32/32 33/33/33 31/31/31
f 35/35/35 32/32/32 31/31/31
f 35/35/35 33/33/33 32/32/32
f 35/35/35 34/34/34 33/33/33
f 35/35/35 31/31/31 34/34/34
v 0.07252111 0.3967903 0.00674127
v 0.07252735 0.3977476 0.01669534
v 0.08252711 0.3976782 0.01669576
v 0.08252087 0.3967208 0.006741685
v 0.07487964 0.01664159 0.04832415
vn -0.4083492 -0.02561633 -0.4073427
vn -0.4079838 0.04191839 0.4063563
vn 0.4084969 0.04686834 0.4052987
vn 0.4079838 -0.04191839 -0.4063563
vn -0.003993074 -0.5746846 0.05527352
vt 0 0
vt 1 0
vt 1 1
vt 0 1
vt 0.5 0.5
usemtl UI_VROverlay_NoZTest
f 38/38/38 39/39/39 36/36/36
f 37/37/37 38/38/38 36/36/36
f 40/40/40 37/37/37 36/36/36
f 40/40/40 38/38/38 37/37/37
f 40/40/40 39/39/39 38/38/38
f 40/40/40 36/36/36 39/39/39
v 0.07250799 0.07710226 0.03726835
v 0.06911295 0.07043342 0.04390162
v 0.07804462 0.07035904 0.04839825
v 0.08143967 0.07702788 0.04176498
v 0.1088468 -0.01108069 -0.02525076
vn -0.2361554 0.3014353 -0.4320888
vn -0.5032359 -0.2692178 0.08722788
vn 0.2150387 -0.2480868 0.4749154
vn 0.5032359 0.2692178 -0.08722788
vn 0.1702836 -0.4301978 -0.3453504
vt 0 0
vt 1 0
vt 1 1
vt 0 1
vt 0.5 0.5
usemtl UI_VROverlay_NoZTest
f 43/43/43 44/44/44 41/41/41
f 42/42/42 43/43/43 41/41/41
f 45/45/45 42/42/42 41/41/41
f 45/45/45 43/43/43 42/42/42
f 45/45/45 44/44/44 43/43/43
f 45/45/45 41/41/41 44/44/44
v 0.1001346 0.007127332 -0.01756455
v 0.0991346 -0.002816475 -0.01791207
v 0.1074879 -0.003845262 -0.01251172
v 0.1084879 0.006098545 -0.0121642
v 0.133912 0.0002504077 -0.06186318
vn -0.3371235 0.4462019 -0.1434747
vn -0.3818474 -0.3639541 -0.2346557
vn 0.2584885 -0.442569 0.2658002
vn 0.3818473 0.3639542 0.2346557
vn 0.3121012 -0.01441867 -0.4855084
vt 0 0
vt 1 0
vt 1 1
vt 0 1
vt 0.5 0.5
usemtl UI_VROverlay_NoZTest
f 48/48/48 49/49/49 46/46/46
f 47/47/47 48/48/48 46/46/46
f 50/50/50 47/47/47 46/46/46
f 50/50/50 48/48/48 47/47/47
f 50/50/50 49/49/49 48/48/48
f 50/50/50 46/46/46 49/49/49
v 0.005 0.7950143 -0.004999999
v 0.004999999 0.7950143 0.005
v -0.005 0.7950143 0.004999999
v -0.004999999 0.7950143 -0.005
v 0 0.8991149 0
vn 0.4073098 -0.03912655 -0.4073097
vn 0.4082482 0 0.4082483
vn -0.4073098 -0.03912655 0.4073097
vn -0.4082482 0 -0.4082483
vn 0 0.5773503 0
vt 0 0
vt 1 0
vt 1 1
vt 0 1
vt 0.5 0.5
usemtl UI_VROverlay_NoZTest
f 53/53/53 54/54/54 51/51/51
f 52/52/52 53/53/53 51/51/51
f 55/55/55 52/52/52 51/51/51
f 55/55/55 53/53/53 52/52/52
f 55/55/55 54/54/54 53/53/53
f 55/55/55 51/51/51 54/54/54
v 0.005 0.8834999 -0.004999999
v 0.004999999 0.8834999 0.005
v -0.005 0.8834999 0.004999999
v -0.004999999 0.8834999 -0.005
v 0 1.004983 0
vn 0.4075585 -0.03354856 -0.4075584
vn 0.4082483 0 0.4082483
vn -0.4075585 -0.03354856 0.4075584
vn -0.4082483 0 -0.4082483
vn 0 0.5773503 0
vt 0 0
vt 1 0
vt 1 1
vt 0 1
vt 0.5 0.5
usemtl UI_VROverlay_NoZTest
f 58/58/58 59/59/59 56/56/56
f 57/57/57 58/58/58 56/56/56
f 60/60/60 57/57/57 56/56/56
f 60/60/60 58/58/58 57/57/57
f 60/60/60 59/59/59 58/58/58
f 60/60/60 56/56/56 59/59/59
v 0.005 0.9867606 -0.004999999
v 0.004999999 0.9867606 0.005
v -0.005 0.9867606 0.004999999
v -0.004999999 0.9867606 -0.005
v -1.890849E-13 1.125598 -1.653033E-20
vn 0.4077198 -0.02936665 -0.4077198
vn 0.4082482 5.559982E-13 0.4082483
vn -0.4077198 -0.02936665 0.4077198
vn -0.4082482 -5.559982E-13 -0.4082483
vn -7.863005E-13 0.5773503 -6.874057E-20
vt 0 0
vt 1 0
vt 1 1
vt 0 1
vt 0.5 0.5
usemtl UI_VROverlay_NoZTest
f 63/63/63 64/64/64 61/61/61
f 62/62/62 63/63/63 61/61/61
f 65/65/65 62/62/62 61/61/61
f 65/65/65 63/63/63 62/62/62
f 65/65/65 64/64/64 63/63/63
f 65/65/65 61/61/61 64/64/64
v 0.00462085 1.106683 -0.004999999
v 0.004620849 1.106683 0.005
v -0.00462085 1.102863 0.004999999
v -0.004620849 1.102863 -0.005
v -0.0577 1.244373 -5.044288E-09
vn 0.3871905 0.130823 -0.4078017
vn 0.3772907 0.1559433 0.4082483
vn -0.3665658 -0.1807226 0.4078017
vn -0.3772907 -0.1559433 -0.4082483
vn -0.2205373 0.5335697 -1.927996E-08
vt 0 0
vt 1 0
vt 1 1
vt 0 1
vt 0.5 0.5
usemtl UI_VROverlay_NoZTest
f 68/68/68 69/69/69 66/66/66
f 67/67/67 68/68/68 66/66/66
f 70/70/70 67/67/67 66/66/66
f 70/70/70 68/68/68 67/67/67
f 70/70/70 69/69/69 68/68/68
f 70/70/70 66/66/66 69/69/69
v -0.049045 1.218433 -0.005000005
v -0.049045 1.228433 -0.005000004
v -0.049045 1.228433 0.004999997
v -0.049045 1.218433 0.004999996
v -0.172845 1.223433 -2.642482E-08
vn 0.03292317 -0.4075839 -0.407584
vn -1.965866E-07 0.4082483 -0.4082482
vn 0.03292239 0.407584 0.407584
vn 1.977863E-07 -0.4082483 0.4082482
vn -0.5773503 -3.441276E-08 -1.032383E-07
vt 0 0
vt 1 0
vt 1 1
vt 0 1
vt 0.5 0.5
usemtl UI_VROverlay_NoZTest
f 73/73/73 74/74/74 71/71/71
f 72/72/72 73/73/73 71/71/71
f 75/75/75 72/72/72 71/71/71
f 75/75/75 73/73/73 72/72/72
f 75/75/75 74/74/74 73/73/73
f 75/75/75 71/71/71 74/74/74
v -0.154275 1.218433 -0.005000014
v -0.154275 1.228433 -0.005000013
v -0.154275 1.228433 0.004999987
v -0.154275 1.218433 0.004999986
v -0.4917249 1.223433 -7.349827E-08
vn 0.01209559 -0.4081587 -0.4081587
vn -1.09366E-08 0.4082483 -0.4082482
vn 0.01209518 0.4081587 0.4081587
vn 1.181684E-08 -0.4082483 0.4082482
vn -0.5773503 -3.441276E-08 -1.030973E-07
vt 0 0
vt 1 0
vt 1 1
vt 0 1
vt 0.5 0.5
usemtl UI_VROverlay_NoZTest
f 78/78/78 79/79/79 76/76/76
f 77/77/77 78/78/78 76/76/76
f 80/80/80 77/77/77 76/76/76
f 80/80/80 78/78/78 77/77/77
f 80/80/80 79/79/79 78/78/78
f 80/80/80 76/76/76 79/79/79
v -0.4411074 1.218446 -0.005012846
v -0.4411074 1.228445 -0.004987196
v -0.4411074 1.22842 0.00501277
v -0.4411074 1.21842 0.00498712
v -0.8111075 1.223433 2.153352E-07
vn 0.01103129 -0.4071254 -0.4092194
vn -1.009325E-07 0.4092941 -0.4071998
vn 0.01103216 0.4071254 0.4092194
vn 1.013339E-07 -0.4092941 0.4071998
vn -0.5773503 4.473655E-07 3.958928E-07
vt 0 0
vt 1 0
vt 1 1
vt 0 1
vt 0.5 0.5
usemtl UI_VROverlay_NoZTest
f 83/83/83 84/84/84 81/81/81
f 82/82/82 83/83/83 81/81/81
f 85/85/85 82/82/82 81/81/81
f 85/85/85 83/83/83 82/82/82
f 85/85/85 84/84/84 83/83/83
f 85/85/85 81/81/81 84/84/84
v -0.7556074 1.218445 -0.005012187
v -0.7556074 1.228445 -0.004987427
v -0.7556074 1.22842 0.005012541
v -0.7556074 1.218421 0.004987781
v -0.7998163 1.223433 2.258995E-07
vn 0.09118616 -0.4021249 -0.4041212
vn -7.085845E-07 0.4092578 -0.4072362
vn 0.09118648 0.402125 0.4041211
vn 7.11944E-07 -0.4092578 0.4072362
vn -0.5773503 -4.345325E-07 7.182278E-07
vt 0 0
vt 1 0
vt 1 1
vt 0 1
vt 0.5 0.5
usemtl UI_VROverlay_NoZTest
f 88/88/88 89/89/89 86/86/86
f 87/87/87 88/88/88 86/86/86
f 90/90/90 87/87/87 86/86/86
f 90/90/90 88/88/88 87/87/87
f 90/90/90 89/89/89 88/88/88
f 90/90/90 86/86/86 89/89/89
v -0.7931849 1.216678 -0.002089463
v -0.7931849 1.225523 -0.006755021
v -0.7931849 1.230188 0.002089899
v -0.7931849 1.221343 0.006755457
v -0.8202114 1.223433 2.492412E-07
vn 0.146138 -0.5336013 -0.1650657
vn -1.189691E-06 0.1706217 -0.5515628
vn 0.1461347 0.5336023 0.1650654
vn 1.195186E-06 -0.1706218 0.5515628
vn -0.5773504 -2.142074E-06 7.232629E-07
vt 0 0
vt 1 0
vt 1 1
vt 0 1
vt 0.5 0.5
usemtl UI_VROverlay_NoZTest
f 93/93/93 94/94/94 91/91/91
f 92/92/92 93/93/93 91/91/91
f 95/95/95 92/92/92 91/91/91
f 95/95/95 93/93/93 92/92/92
f 95/95/95 94/94/94 93/93/93
f 95/95/95 91/91/91 94/94/94
v 0.005 1.104773 -0.004999999
v 0.004999999 1.104773 0.005
v -0.005 1.104773 0.004999999
v -0.004999999 1.104773 -0.005
v -3.747581E-13 1.260965 1.504705E-08
vn 0.4078306 -0.02611072 -0.4078305
vn 0.4082482 -3.898539E-08 0.4082483
vn -0.4078306 -0.0261108 0.4078305
vn -0.4082482 3.898539E-08 -0.4082483
vn -7.863003E-13 0.5773503 -6.874056E-20
vt 0 0
vt 1 0
vt 1 1
vt 0 1
vt 0.5 0.5
usemtl UI_VROverlay_NoZTest
f 98/98/98 99/99/99 96/96/96
f 97/97/97 98/98/98 96/96/96
f 100/100/100 97/97/97 96/96/96
f 100/100/100 98/98/98 97/97/97
f 100/100/100 99/99/99 98/98/98
f 100/100/100 96/96/96 99/99/99
v 0.004999999 1.237932 0.004984342
v -0.005 1.237932 0.004984341
v -0.004999999 1.237141 -0.004984316
v 0.005 1.237141 -0.004984315
v 5.259224E-10 1.31341 -0.006021339
vn 0.4064978 -0.0210817 0.409449
vn -0.4082483 0.03229721 0.4069687
vn -0.4064977 -0.08539913 -0.4009986
vn 0.4082483 -0.03229721 -0.4069688
vn 1.720231E-07 0.5755407 -0.04567538
vt 0 0
vt 1 0
vt 1 1
vt 0 1
vt 0.5 0.5
usemtl UI_VROverlay_NoZTest
f 103/103/103 104/104/104 101/101/101
f 102/102/102 103/103/103 101/101/101
f 105/105/105 102/102/102 101/101/101
f 105/105/105 103/103/103 102/102/102
f 105/105/105 104/104/104 103/103/103
f 105/105/105 101/101/101 104/104/104
v 0.005 1.302424 -0.0001338073
v -0.005 1.302424 -0.0001338082
v -0.004999999 1.301633 -0.01010247
v 0.005000001 1.301633 -0.01010246
v 2.251408E-09 1.562179 -0.02576378
vn 0.4080985 0.01669654 0.4080566
vn -0.4082483 0.03229725 0.4069687
vn -0.4080985 -0.04787426 -0.4055823
vn 0.4082483 -0.03229725 -0.4069687
vn -6.681322E-07 0.5755408 -0.04567456
vt 0 0
vt 1 0
vt 1 1
vt 0 1
vt 0.5 0.5
usemtl UI_VROverlay_NoZTest
f 108/108/108 109/109/109 106/106/106
f 107/107/107 108/108/108 106/106/106
f 110/110/110 107/107/107 106/106/106
f 110/110/110 108/108/108 107/107/107
f 110/110/110 109/109/109 108/108/108
f 110/110/110 106/106/106 109/109/109
v -0.004612367 1.106703 0.004999999
v -0.004612366 1.106703 -0.005
v 0.004612367 1.102842 -0.004999999
v 0.004612366 1.102842 0.005
v 0.0588 1.245273 5.140453E-09
vn -0.38653 0.1327395 0.407809
vn -0.3765981 0.1576086 -0.4082483
vn 0.3658561 -0.1821385 -0.407809
vn 0.3765982 -0.1576086 0.4082483
vn 0.2228917 0.5325904 -3.165763E-07
vt 0 0
vt 1 0
vt 1 1
vt 0 1
vt 0.5 0.5
usemtl UI_VROverlay_NoZTest
f 113/113/113 114/114/114 111/111/111
f 112/112/112 113/113/113 111/111/111
f 115/115/115 112/112/112 111/111/111
f 115/115/115 113/113/113 112/112/112
f 115/115/115 114/114/114 113/113/113
f 115/115/115 111/111/111 114/114/114
v 0.04998 1.219198 0.005000004
v 0.04998001 1.229198 0.005000005
v 0.04998001 1.229198 -0.004999996
v 0.04998 1.219198 -0.004999997
v 0.1720289 1.224197 2.619342E-08
vn -0.03339422 -0.4075648 0.4075648
vn 5.488253E-07 0.4082483 0.4082483
vn -0.03339293 0.4075649 -0.4075648
vn -5.500422E-07 -0.4082483 -0.4082483
vn 0.5773503 -1.042599E-06 -2.328239E-07
vt 0 0
vt 1 0
vt 1 1
vt 0 1
vt 0.5 0.5
usemtl UI_VROverlay_NoZTest
f 118/118/118 119/119/119 116/116/116
f 117/117/117 118/118/118 116/116/116
f 120/120/120 117/117/117 116/116/116
f 120/120/120 118/118/118 117/117/117
f 120/120/120 119/119/119 118/118/118
f 120/120/120 116/116/116 119/119/119
v 0.1537215 1.219198 0.005000013
v 0.1537215 1.229198 0.005000014
v 0.1537215 1.229198 -0.004999986
v 0.1537215 1.219198 -0.004999987
v 0.4900585 1.224197 7.358047E-08
vn -0.01213566 -0.4081581 0.4081581
vn 1.681491E-07 0.4082483 0.4082483
vn -0.01213513 0.4081581 -0.4081581
vn -1.685907E-07 -0.4082483 -0.4082483
vn 0.5773503 -3.441276E-08 1.032383E-07
vt 0 0
vt 1 0
vt 1 1
vt 0 1
vt 0.5 0.5
usemtl UI_VROverlay_NoZTest
f 123/123/123 124/124/124 121/121/121
f 122/122/122 123/123/123 121/121/121
f 125/125/125 122/122/122 121/121/121
f 125/125/125 123/123/123 122/122/122
f 125/125/125 124/124/124 123/123/123
f 125/125/125 121/121/121 124/124/124
v 0.4396079 1.219198 0.005000039
v 0.4396079 1.229198 0.005000039
v 0.4396079 1.229198 -0.004999961
v 0.4396079 1.219198 -0.004999962
v 0.814608 1.224197 1.054869E-07
vn -0.01088493 -0.4081757 0.4081757
vn 1.45795E-07 0.4082483 0.4082483
vn -0.01088444 0.4081757 -0.4081757
vn -1.461911E-07 -0.4082483 -0.4082483
vn 0.5773503 -3.441276E-08 1.032383E-07
vt 0 0
vt 1 0
vt 1 1
vt 0 1
vt 0.5 0.5
usemtl UI_VROverlay_NoZTest
f 128/128/128 129/129/129 126/126/126
f 127/127/127 128/128/128 126/126/126
f 130/130/130 127/127/127 126/126/126
f 130/130/130 128/128/128 127/127/127
f 130/130/130 129/129/129 128/128/128
f 130/130/130 126/126/126 129/129/129
v 0.7583579 1.219198 0.005000066
v 0.7583579 1.229198 0.005000067
v 0.7583579 1.229198 -0.004999934
v 0.7583579 1.219198 -0.004999935
v 0.8144239 1.224197 7.631256E-08
vn -0.07224476 -0.4050395 0.4050396
vn 1.252002E-06 0.4082483 0.4082483
vn -0.07224209 0.4050399 -0.4050397
vn -1.254651E-06 -0.4082483 -0.4082483
vn 0.5773503 -1.882754E-06 -6.481987E-08
vt 0 0
vt 1 0
vt 1 1
vt 0 1
vt 0.5 0.5
usemtl UI_VROverlay_NoZTest
f 133/133/133 134/134/134 131/131/131
f 132/132/132 133/133/133 131/131/131
f 135/135/135 132/132/132 131/131/131
f 135/135/135 133/133/133 132/132/132
f 135/135/135 134/134/134 133/133/133
f 135/135/135 131/131/131 134/134/134
v 0.806014 1.222767 0.006924812
v 0.8060141 1.231122 0.001431138
v 0.806014 1.225629 -0.006924671
v 0.8060139 1.217273 -0.001430997
v 0.8279693 1.224197 7.132395E-08
vn -0.1769936 -0.1112187 0.5381793
vn 4.614135E-06 0.5654028 0.1168462
vn -0.1769917 0.1112216 -0.5381793
vn -4.6209E-06 -0.5654027 -0.1168461
vn 0.5773503 -4.672314E-06 4.123844E-08
vt 0 0
vt 1 0
vt 1 1
vt 0 1
vt 0.5 0.5
usemtl UI_VROverlay_NoZTest
f 138/138/138 139/139/139 136/136/136
f 137/137/137 138/138/138 136/136/136
f 140/140/140 137/137/137 136/136/136
f 140/140/140 138/138/138 137/137/137
f 140/140/140 139/139/139 138/138/138
f 140/140/140 136/136/136 139/139/139
