# Blender 3.6.4
# www.blender.org
o standard
v -0.005577 1.050098 -0.007464
v -0.005039 1.050098 0.012529
v 0.005583 1.033154 0.012243
v 0.005045 1.033154 -0.007749
v -0.130533 0.959736 0.005903
v -0.140531 0.959813 -0.004099
v -0.140532 0.959962 0.015900
v -0.120535 0.959659 0.015904
v -0.120533 0.959510 -0.004095
v -0.138325 0.445768 0.009711
v -0.148311 0.445013 -0.000274
v -0.148335 0.446102 0.019696
v -0.128339 0.446523 0.019696
v -0.128316 0.445434 -0.000274
v -0.130552 0.076405 0.029858
v -0.140594 0.084483 0.024034
v -0.140509 0.068391 0.035911
v -0.120510 0.068327 0.035681
v -0.120595 0.084419 0.023804
v -0.131939 0.002550 -0.070198
v -0.141888 0.012601 -0.070166
v -0.141989 -0.007399 -0.070028
v -0.121990 -0.007500 -0.070231
v -0.121890 0.012499 -0.070368
v -0.132507 0.002169 -0.126084
v 0.005392 1.050097 0.012350
v 0.005243 1.050097 -0.007649
v -0.005387 1.033155 -0.007570
v -0.005237 1.033155 0.012429
v 0.130531 0.959725 0.001414
v 0.120534 0.959461 -0.008585
v 0.120531 0.959686 0.011414
v 0.140529 0.959989 0.011414
v 0.140532 0.959764 -0.008585
v 0.138331 0.445764 0.007192
v 0.128321 0.445362 -0.002790
v 0.128346 0.446587 0.017173
v 0.148342 0.446166 0.017173
v 0.148316 0.444941 -0.002789
v 0.130552 0.076431 0.029852
v 0.120587 0.084527 0.023922
v 0.120518 0.068264 0.035563
v 0.140517 0.068335 0.035781
v 0.140585 0.084598 0.024140
v 0.131939 0.002573 -0.073316
v 0.121895 0.012528 -0.073488
v 0.121984 -0.007471 -0.073348
v 0.141982 -0.007382 -0.073143
v 0.141894 0.012617 -0.073283
v 0.132506 0.002189 -0.128568
v -0.009997 1.041815 -0.007608
v 0.010003 1.041815 -0.007608
v 0.010003 1.041436 0.012388
v -0.009997 1.041437 0.012388
v 0.000009 1.188951 0.005177
v 0.010009 1.189141 -0.004821
v 0.010009 1.188762 0.015175
v -0.009991 1.188762 0.015175
v -0.009991 1.189141 -0.004821
v 0.000009 1.360831 0.008429
v 0.010009 1.361020 -0.001570
v 0.010009 1.360642 0.018427
v -0.009991 1.360642 0.018427
v -0.009991 1.361020 -0.001570
v 0.000009 1.557265 0.012145
v 0.009262 1.561165 0.002186
v 0.009328 1.560786 0.022182
v -0.009244 1.553365 0.022103
v -0.009310 1.553743 0.002107
v -0.082571 1.763881 0.016327
v -0.081034 1.754197 0.006136
v -0.084169 1.773946 0.006521
v -0.084108 1.773566 0.026518
v -0.080974 1.753817 0.026132
v -0.249325 1.737418 0.016330
v -0.249324 1.727610 0.006141
v -0.249325 1.747607 0.006522
v -0.249325 1.747225 0.026519
v -0.249324 1.727229 0.026137
v -0.596529 1.737411 0.016329
v -0.596529 1.727604 0.006140
v -0.596529 1.747600 0.006522
v -0.596529 1.747218 0.026519
v -0.596529 1.727222 0.026137
v -1.040978 1.737403 0.016329
v -1.040978 1.749382 0.008812
v -1.040978 1.744920 0.028308
v -1.040977 1.725424 0.023846
v -1.040977 1.729886 0.004350
v -1.070202 1.737402 0.016329
v 0.010009 1.557454 0.002146
v 0.010009 1.557076 0.022143
v -0.009991 1.557076 0.022143
v -0.009991 1.557454 0.002146
v 0.000009 1.778253 0.016325
v 0.010009 1.778399 0.026324
v -0.009991 1.778399 0.026324
v -0.009991 1.778106 0.006326
v 0.010009 1.778106 0.006326
v 0.000009 1.852505 0.015236
v 0.010009 1.852651 0.025235
v -0.009991 1.852651 0.025235
v -0.009991 1.852358 0.005238
v 0.010009 1.852358 0.005238
v 0.000009 2.166870 0.010626
v -0.009310 1.560786 0.022183
v -0.009244 1.561165 0.002186
v 0.009328 1.553743 0.002107
v 0.009262 1.553365 0.022103
v 0.082589 1.763882 0.016324
v 0.080992 1.753817 0.026130
v 0.084127 1.773566 0.026514
v 0.084187 1.773946 0.006518
v 0.081052 1.754197 0.006133
v 0.249342 1.737411 0.016321
v 0.249341 1.727217 0.026123
v 0.249342 1.747214 0.026514
v 0.249342 1.747605 0.006518
v 0.249341 1.727609 0.006127
v 0.596545 1.737391 0.016320
v 0.596545 1.727198 0.026123
v 0.596546 1.747194 0.026513
v 0.596546 1.747584 0.006517
v 0.596545 1.727588 0.006127
v 1.040999 1.737365 0.016318
v 1.040999 1.745156 0.028122
v 1.040999 1.749169 0.008528
v 1.040998 1.729575 0.004515
v 1.040998 1.725562 0.024109
v 1.070080 1.737363 0.016318
vn 0.4703 -0.5480 0.6918
vn 0.3565 -0.5990 -0.7170
vn -0.3155 0.6451 -0.6959
vn -0.3565 0.5990 0.7170
vn 0.4703 -0.5480 0.6917
vn -0.8469 -0.5313 0.0229
vn -0.3566 0.5990 0.7170
vn -0.8469 -0.5312 0.0228
vn -0.8469 -0.5313 0.0227
vn 0.3565 -0.5991 -0.7169
vn 0.3565 -0.5991 -0.7170
vn 0.7071 0.0220 0.7068
vn 0.7070 -0.0159 -0.7070
vn -0.7063 0.0330 -0.7072
vn -0.7070 0.0160 0.7070
vn -0.0152 -0.9999 0.0075
vn -0.7071 0.0160 0.7069
vn -0.0151 -0.9999 0.0074
vn 0.7071 0.0221 0.7068
vn -0.7071 0.0160 0.7070
vn -0.0151 -0.9999 0.0073
vn 0.7071 -0.0159 -0.7070
vn 0.7071 0.0221 0.7067
vn 0.7048 0.0915 0.7035
vn 0.7078 -0.0236 -0.7060
vn -0.7064 -0.0152 -0.7076
vn -0.7077 0.0236 0.7061
vn 0.0210 -0.9983 0.0544
vn -0.7078 0.0237 0.7060
vn 0.0209 -0.9983 0.0545
vn -0.7078 0.0237 0.7061
vn 0.0211 -0.9983 0.0544
vn 0.7078 -0.0236 -0.7061
vn 0.7068 -0.5004 0.5000
vn 0.7040 0.5667 -0.4281
vn -0.7043 0.6346 -0.3182
vn -0.7041 -0.5666 0.4280
vn -0.0112 -0.5938 -0.8046
vn -0.7042 0.6346 -0.3183
vn -0.0112 -0.5938 -0.8045
vn -0.7040 -0.5667 0.4281
vn -0.0111 -0.5939 -0.8045
vn 0.7040 0.5667 -0.4280
vn 0.7068 -0.5005 0.5000
vn -0.0111 -0.5938 -0.8045
vn 0.7041 0.5667 -0.4280
vn 0.6845 -0.6873 0.2431
vn 0.7105 0.7035 -0.0120
vn -0.6795 0.6906 0.2475
vn -0.7105 -0.7035 0.0120
vn -0.0101 -0.0069 -0.9999
vn -0.7106 -0.7035 0.0121
vn -0.0102 -0.0068 -0.9999
vn -0.0102 -0.0067 -0.9999
vn 0.7106 0.7035 -0.0120
vn -0.0101 -0.0068 -0.9999
vn -0.4569 -0.5479 -0.7007
vn -0.3705 -0.5989 0.7099
vn 0.3021 0.6450 0.7019
vn 0.3705 0.5989 -0.7099
vn 0.8470 -0.5315 -0.0062
vn 0.3705 0.5990 -0.7099
vn 0.8471 -0.5314 -0.0063
vn -0.3706 -0.5990 0.7099
vn -0.4569 -0.5479 -0.7008
vn 0.7062 0.0462 0.7065
vn 0.7072 0.0028 -0.7070
vn -0.7071 0.0088 -0.7071
vn -0.7072 -0.0028 0.7070
vn 0.0152 -0.9998 0.0111
vn -0.7071 0.0089 -0.7071
vn 0.0151 -0.9998 0.0113
vn -0.7071 -0.0028 0.7071
vn 0.0153 -0.9998 0.0112
vn -0.7070 0.0089 -0.7071
vn 0.7071 0.0028 -0.7071
vn 0.7081 0.0665 0.7029
vn 0.7060 -0.0582 -0.7058
vn -0.7065 0.0098 -0.7076
vn -0.7060 0.0582 0.7058
vn 0.7085 0.0665 0.7026
vn -0.7065 0.0097 -0.7076
vn -0.0210 -0.9979 0.0611
vn -0.7061 0.0581 0.7058
vn -0.0211 -0.9979 0.0612
vn -0.0210 -0.9979 0.0613
vn 0.7061 -0.0582 -0.7058
vn 0.7081 0.0665 0.7030
vn -0.0209 -0.9979 0.0612
vn 0.6991 -0.5045 0.5068
vn 0.7095 0.5774 -0.4039
vn -0.7015 0.6334 -0.3267
vn -0.7095 -0.5774 0.4039
vn 0.0109 -0.5822 -0.8130
vn -0.7095 -0.5775 0.4039
vn 0.0110 -0.5821 -0.8130
vn 0.0110 -0.5822 -0.8130
vn 0.7095 0.5775 -0.4039
vn 0.0110 -0.5821 -0.8131
vn 0.6855 -0.6802 0.2597
vn 0.7039 0.7103 0.0023
vn -0.6905 0.6837 0.2361
vn -0.7039 -0.7103 -0.0023
vn 0.0103 -0.0069 -0.9999
vn -0.7040 -0.7102 -0.0023
vn -0.6905 0.6836 0.2362
vn 0.0104 -0.0070 -0.9999
vn 0.6854 -0.6802 0.2598
vn 0.7040 0.7102 0.0023
vn 0.6855 -0.6802 0.2598
vn 0.0104 -0.0069 -0.9999
vn -0.6905 0.6837 0.2362
vn 0.7039 -0.1089 0.7019
vn -0.7072 -0.0133 0.7069
vn -0.7039 -0.0822 -0.7056
vn 0.7072 0.0134 -0.7069
vn 0.0001 0.9998 0.0189
vn 0.7071 0.0133 -0.7070
vn -0.7039 -0.0822 -0.7055
vn 0.0001 0.9998 0.0188
vn -0.7071 -0.0134 0.7070
vn 0.0001 0.9998 0.0190
vn -0.7047 -0.0953 0.7030
vn -0.7071 0.0134 -0.7070
vn 0.7047 -0.0686 -0.7062
vn 0.7071 -0.0134 0.7070
vn 0.7047 -0.0687 -0.7062
vn -0.0000 0.9998 0.0190
vn 0.7071 -0.0133 0.7070
vn -0.0000 0.9998 0.0188
vn -0.0001 0.9998 0.0189
vn 0.7047 -0.0687 -0.7061
vn -0.7053 -0.0851 0.7038
vn 0.7050 -0.0585 -0.7067
vn 0.7053 -0.0584 -0.7065
vn -0.7071 0.0133 -0.7070
vn -0.6294 -0.3341 0.7016
vn -0.6589 -0.2490 -0.7098
vn 0.6765 0.2163 -0.7040
vn 0.6590 0.2490 0.7097
vn -0.3711 0.9284 0.0187
vn 0.6590 0.2490 0.7098
vn 0.6765 0.2164 -0.7040
vn -0.3712 0.9284 0.0188
vn -0.6294 -0.3340 0.7016
vn -0.3711 0.9284 0.0189
vn -0.6590 -0.2490 -0.7098
vn -0.3710 0.9285 0.0188
vn -0.0259 0.6955 0.7181
vn 0.1130 -0.7117 0.6933
vn 0.1907 -0.6693 -0.7181
vn -0.1130 0.7117 -0.6933
vn -0.9876 -0.1568 -0.0000
vn -0.1130 0.7117 -0.6934
vn -0.9876 -0.1567 0.0001
vn -0.9877 -0.1566 -0.0000
vn 0.1129 -0.7117 0.6934
vn -0.9876 -0.1567 -0.0001
vn 0.0407 0.6929 0.7199
vn -0.0000 -0.7205 0.6935
vn 0.0407 -0.6929 -0.7199
vn -0.0000 0.7204 -0.6935
vn -1.0000 -0.0001 -0.0000
vn -0.0000 0.7205 -0.6935
vn -1.0000 -0.0000 0.0001
vn 0.0406 0.6929 0.7199
vn -1.0000 -0.0000 -0.0001
vn 0.0318 0.6931 0.7201
vn -0.0000 -0.7204 0.6935
vn 0.0318 -0.6931 -0.7201
vn -0.0000 0.7205 -0.6934
vn 0.0317 0.6931 0.7201
vn -1.0000 0.0001 -0.0000
vn 0.4356 -0.7624 0.4785
vn -0.0000 -0.5315 -0.8471
vn 0.4356 0.7625 -0.4784
vn -0.0000 0.5315 0.8471
vn -0.0000 0.5315 0.8470
vn 0.4356 0.7625 -0.4785
vn 0.4356 -0.7625 0.4784
vn 0.0001 -0.5315 -0.8470
vn -1.0000 -0.0000 -0.0000
vn -0.7057 -0.0772 0.7043
vn 0.7057 -0.0505 -0.7067
vn -0.6946 -0.1972 -0.6918
vn 0.7072 -0.0103 -0.7070
vn 0.6946 -0.1769 0.6973
vn -0.7072 0.0103 0.7070
vn -0.0001 0.9999 -0.0147
vn -0.7071 0.0103 0.7070
vn -0.0000 0.9999 -0.0148
vn -0.0001 0.9999 -0.0146
vn 0.7071 -0.0104 -0.7070
vn -0.7064 -0.0553 -0.7057
vn 0.7072 -0.0104 -0.7070
vn 0.7064 -0.0346 0.7070
vn -0.7071 0.0103 0.7071
vn 0.0001 0.9999 -0.0147
vn -0.7071 0.0104 0.7070
vn 0.7064 -0.0345 0.7070
vn -0.0000 0.9999 -0.0146
vn -0.7064 -0.0552 -0.7057
vn 0.7071 -0.0103 -0.7070
vn 0.6341 -0.3074 -0.7095
vn 0.6544 -0.2758 0.7041
vn -0.6811 0.1896 0.7072
vn -0.6543 0.2757 -0.7042
vn 0.6341 -0.3074 -0.7096
vn 0.3711 0.9284 0.0189
vn -0.6543 0.2758 -0.7042
vn 0.3710 0.9285 0.0188
vn -0.6543 0.2758 -0.7041
vn 0.3711 0.9284 0.0187
vn 0.6543 -0.2757 0.7042
vn 0.3712 0.9284 0.0188
vn -0.6811 0.1897 0.7072
vn 0.6543 -0.2757 0.7041
vn 0.0301 0.7223 -0.6909
vn -0.1087 -0.6847 -0.7206
vn -0.1950 -0.6961 0.6910
vn 0.1087 0.6847 0.7206
vn 0.0301 0.7223 -0.6910
vn -0.1950 -0.6961 0.6909
vn 0.9876 -0.1569 -0.0000
vn 0.1087 0.6848 0.7206
vn 0.9876 -0.1568 0.0001
vn 0.0302 0.7223 -0.6909
vn 0.9876 -0.1567 -0.0000
vn -0.1087 -0.6848 -0.7206
vn 0.9876 -0.1568 -0.0001
vn -0.0406 0.7202 -0.6926
vn -0.0000 -0.6932 -0.7208
vn -0.0407 -0.7202 0.6925
vn -0.0000 0.6931 0.7208
vn -0.0407 -0.7202 0.6926
vn 1.0000 -0.0000 -0.0000
vn 1.0000 -0.0000 -0.0001
vn -0.0000 0.6932 0.7208
vn -0.0001 -0.6931 -0.7208
vn 1.0000 -0.0001 -0.0001
vn -0.0317 0.7204 -0.6928
vn -0.0000 -0.6932 -0.7207
vn -0.0319 -0.7204 0.6928
vn 1.0000 -0.0002 -0.0000
vn -0.0318 -0.7204 0.6928
vn 1.0000 -0.0001 0.0001
vn -0.0317 0.7204 -0.6929
vn -0.0001 -0.6932 -0.7208
vn -0.0318 -0.7204 0.6929
vn -0.4374 -0.4954 -0.7506
vn -0.0000 -0.8346 0.5509
vn -0.4373 0.4954 0.7506
vn 0.0001 0.8346 -0.5508
vn -0.4374 -0.4951 -0.7507
vn -0.0000 0.8346 -0.5509
vn -0.4373 -0.4954 -0.7506
vn -0.0000 0.8346 -0.5508
vn -0.0001 -0.8346 0.5509
vn -0.4373 -0.4953 -0.7506
vn -0.4372 0.4955 0.7506
vn -0.0001 -0.8346 0.5508
vt 1.000000 1.000000
vt 0.000000 1.000000
vt 0.000000 0.000000
vt 1.000000 0.000000
vt 0.500000 0.500000
s 0
f 3/1/1 4/2/2 1/3/3
f 2/4/4 3/1/5 1/3/3
f 5/5/6 2/4/7 1/3/3
f 5/5/8 3/1/5 2/4/7
f 5/5/9 4/2/10 3/1/1
f 5/5/8 1/3/3 4/2/11
f 8/1/12 9/2/13 6/3/14
f 7/4/15 8/1/12 6/3/14
f 10/5/16 7/4/17 6/3/14
f 10/5/18 8/1/19 7/4/20
f 10/5/21 9/2/22 8/1/23
f 10/5/18 6/3/14 9/2/22
f 13/1/24 14/2/25 11/3/26
f 12/4/27 13/1/24 11/3/26
f 15/5/28 12/4/29 11/3/26
f 15/5/30 13/1/24 12/4/31
f 15/5/28 14/2/25 13/1/24
f 15/5/32 11/3/26 14/2/33
f 18/1/34 19/2/35 16/3/36
f 17/4/37 18/1/34 16/3/36
f 20/5/38 17/4/37 16/3/39
f 20/5/40 18/1/34 17/4/41
f 20/5/42 19/2/43 18/1/44
f 20/5/45 16/3/36 19/2/46
f 23/1/47 24/2/48 21/3/49
f 22/4/50 23/1/47 21/3/49
f 25/5/51 22/4/52 21/3/49
f 25/5/53 23/1/47 22/4/52
f 25/5/54 24/2/55 23/1/47
f 25/5/56 21/3/49 24/2/55
f 28/1/57 29/2/58 26/3/59
f 27/4/60 28/1/57 26/3/59
f 30/5/61 27/4/62 26/3/59
f 30/5/63 28/1/57 27/4/62
f 30/5/61 29/2/64 28/1/65
f 30/5/63 26/3/59 29/2/58
f 33/1/66 34/2/67 31/3/68
f 32/4/69 33/1/66 31/3/68
f 35/5/70 32/4/69 31/3/71
f 35/5/72 33/1/66 32/4/73
f 35/5/70 34/2/67 33/1/66
f 35/5/74 31/3/75 34/2/76
f 38/1/77 39/2/78 36/3/79
f 37/4/80 38/1/81 36/3/82
f 40/5/83 37/4/84 36/3/79
f 40/5/85 38/1/77 37/4/84
f 40/5/86 39/2/87 38/1/88
f 40/5/89 36/3/79 39/2/87
f 43/1/90 44/2/91 41/3/92
f 42/4/93 43/1/90 41/3/92
f 45/5/94 42/4/95 41/3/92
f 45/5/96 43/1/90 42/4/95
f 45/5/97 44/2/98 43/1/90
f 45/5/99 41/3/92 44/2/98
f 48/1/100 49/2/101 46/3/102
f 47/4/103 48/1/100 46/3/102
f 50/5/104 47/4/105 46/3/106
f 50/5/107 48/1/108 47/4/103
f 50/5/104 49/2/109 48/1/110
f 50/5/111 46/3/112 49/2/101
f 53/1/113 54/2/114 51/3/115
f 52/4/116 53/1/113 51/3/115
f 55/5/117 52/4/118 51/3/119
f 55/5/120 53/1/113 52/4/118
f 55/5/117 54/2/121 53/1/113
f 55/5/122 51/3/115 54/2/121
f 58/1/123 59/2/124 56/3/125
f 57/4/126 58/1/123 56/3/127
f 60/5/128 57/4/129 56/3/127
f 60/5/117 58/1/123 57/4/129
f 60/5/130 59/2/124 58/1/123
f 60/5/131 56/3/132 59/2/124
f 63/1/133 64/2/124 61/3/134
f 62/4/126 63/1/133 61/3/135
f 65/5/130 62/4/126 61/3/135
f 65/5/117 63/1/133 62/4/126
f 65/5/128 64/2/136 63/1/133
f 65/5/117 61/3/135 64/2/136
f 68/1/137 69/2/138 66/3/139
f 67/4/140 68/1/137 66/3/139
f 70/5/141 67/4/142 66/3/143
f 70/5/144 68/1/145 67/4/140
f 70/5/146 69/2/147 68/1/145
f 70/5/148 66/3/143 69/2/147
f 73/1/149 74/2/150 71/3/151
f 72/4/152 73/1/149 71/3/151
f 75/5/153 72/4/154 71/3/151
f 75/5/155 73/1/149 72/4/152
f 75/5/156 74/2/157 73/1/149
f 75/5/158 71/3/151 74/2/157
f 78/1/159 79/2/160 76/3/161
f 77/4/162 78/1/159 76/3/161
f 80/5/163 77/4/164 76/3/161
f 80/5/165 78/1/166 77/4/164
f 80/5/163 79/2/160 78/1/166
f 80/5/167 76/3/161 79/2/160
f 83/1/168 84/2/169 81/3/170
f 82/4/171 83/1/168 81/3/170
f 85/5/163 82/4/164 81/3/170
f 85/5/167 83/1/172 82/4/164
f 85/5/173 84/2/160 83/1/172
f 85/5/165 81/3/170 84/2/160
f 88/1/174 89/2/175 86/3/176
f 87/4/177 88/1/174 86/3/176
f 90/5/167 87/4/178 86/3/179
f 90/5/163 88/1/180 87/4/178
f 90/5/165 89/2/181 88/1/174
f 90/5/182 86/3/176 89/2/181
f 93/1/183 94/2/124 91/3/184
f 92/4/126 93/1/183 91/3/184
f 95/5/128 92/4/126 91/3/184
f 95/5/117 93/1/183 92/4/126
f 95/5/130 94/2/136 93/1/183
f 95/5/117 91/3/184 94/2/124
f 98/1/185 99/2/186 96/3/187
f 97/4/188 98/1/185 96/3/187
f 100/5/189 97/4/190 96/3/187
f 100/5/191 98/1/185 97/4/190
f 100/5/192 99/2/193 98/1/185
f 100/5/191 96/3/187 99/2/193
f 103/1/194 104/2/195 101/3/196
f 102/4/197 103/1/194 101/3/196
f 105/5/198 102/4/199 101/3/200
f 105/5/201 103/1/202 102/4/199
f 105/5/189 104/2/193 103/1/202
f 105/5/191 101/3/200 104/2/203
f 108/1/204 109/2/205 106/3/206
f 107/4/207 108/1/208 106/3/206
f 110/5/209 107/4/210 106/3/206
f 110/5/211 108/1/204 107/4/212
f 110/5/213 109/2/214 108/1/208
f 110/5/215 106/3/216 109/2/217
f 113/1/218 114/2/219 111/3/220
f 112/4/221 113/1/222 111/3/223
f 115/5/224 112/4/225 111/3/223
f 115/5/226 113/1/227 112/4/225
f 115/5/228 114/2/229 113/1/227
f 115/5/230 111/3/220 114/2/229
f 118/1/231 119/2/232 116/3/233
f 117/4/234 118/1/231 116/3/235
f 120/5/236 117/4/234 116/3/235
f 120/5/237 118/1/231 117/4/238
f 120/5/236 119/2/239 118/1/231
f 120/5/240 116/3/235 119/2/239
f 123/1/241 124/2/242 121/3/243
f 122/4/234 123/1/241 121/3/243
f 125/5/244 122/4/238 121/3/245
f 125/5/246 123/1/247 122/4/238
f 125/5/236 124/2/248 123/1/241
f 125/5/237 121/3/249 124/2/248
f 128/1/250 129/2/251 126/3/252
f 127/4/253 128/1/254 126/3/252
f 130/5/240 127/4/255 126/3/252
f 130/5/236 128/1/256 127/4/257
f 130/5/246 129/2/258 128/1/259
f 130/5/236 126/3/260 129/2/261
